<svg width="133" height="51" viewBox="0 0 133 51" fill="none" xmlns="http://www.w3.org/2000/svg">
<path d="M86.0317 38.3289L86.085 12.7815V11.0251H122.384V42.3739H95.4523V38.3289H86.0317Z" fill="white"/>
<path d="M91.3077 5.39725C88.7671 5.95078 86.6382 8.15069 86.1556 10.7054C86.0704 11.188 86.0137 15.6446 86.0137 22.6559V33.8542H88.4691C90.6406 33.8542 90.967 33.8258 91.1515 33.5987C91.2651 33.471 93.1386 29.4969 95.3101 24.7707C97.4816 20.0444 99.3977 15.9568 99.5822 15.6872C100.292 14.5375 101.385 13.9414 102.875 13.8705C103.812 13.8137 103.996 13.8563 104.819 14.2537C105.345 14.5091 105.941 14.9491 106.196 15.2472C106.437 15.5452 108.694 19.8315 111.192 24.7849C114.939 32.1652 115.805 33.7832 116.032 33.7832C116.316 33.7832 116.316 33.6697 116.387 27.8789C116.443 23.1669 116.5 21.9321 116.656 21.7476C116.812 21.5489 117.153 21.5063 118.672 21.5063C120.446 21.5063 120.503 21.5205 120.716 21.8469C120.928 22.1592 120.943 22.8972 120.9 28.2054C120.857 33.9961 120.843 34.2374 120.545 34.9754C120.077 36.1251 119.523 36.8347 118.629 37.4024C117.692 38.0127 116.415 38.3392 115.436 38.1972C114.456 38.0695 113.08 37.3457 112.469 36.6502C112.157 36.2812 110.227 32.6336 107.502 27.2544L103.059 18.4548L102.634 19.3773C102.407 19.8883 100.576 23.8481 98.5887 28.177C94.5578 36.8773 94.5011 36.9766 92.8263 37.7998C92.0599 38.1688 91.9747 38.183 89.0368 38.2256L86.0137 38.2824V38.8785C86.0137 42.0435 88.0717 44.7828 91.0522 45.5634C91.776 45.7479 93.8198 45.7763 106.381 45.7763C121.879 45.7763 121.411 45.7905 122.986 45.0524C123.952 44.6125 125.456 43.0796 125.924 42.0719C126.137 41.6319 126.379 40.8939 126.464 40.4397C126.577 39.8436 126.606 35.4154 126.577 24.9836L126.535 10.3648L126.208 9.5416C125.484 7.75329 123.852 6.17786 122.064 5.53918C121.312 5.26951 120.829 5.25532 106.735 5.22693C94.8701 5.21274 92.0173 5.24113 91.3077 5.39725ZM120.673 13.9556C120.928 14.2111 120.928 17.731 120.673 17.9864C120.417 18.2419 116.898 18.2419 116.642 17.9864C116.529 17.8729 116.443 17.3052 116.415 16.3826C116.344 14.5943 116.443 14.0124 116.855 13.8421C117.338 13.6434 120.446 13.7285 120.673 13.9556Z" fill="url(#paint0_linear_504_42438)"/>
<path d="M49.3962 15.8422V19.1208L48.8143 18.5957C46.7563 16.7364 43.279 16.9493 41.292 19.0498C38.5386 21.9594 39.3617 27.2108 42.8248 28.914C43.648 29.3114 43.9461 29.3823 45.1241 29.4249C46.7989 29.4959 47.764 29.1836 48.7433 28.2611L49.3962 27.665V28.4882V29.3114H50.6026H51.809L51.7806 20.9659L51.738 12.6346L50.5742 12.592L49.3962 12.5495V15.8422ZM47.0543 19.7595C48.6014 20.2846 49.4813 21.7891 49.3678 23.691C49.1833 26.4444 46.8131 28.0056 44.2441 27.0405C42.7681 26.487 41.9449 25.1528 41.9733 23.3503C41.9875 22.1439 42.2145 21.491 42.8816 20.7246C43.8609 19.6034 45.5073 19.2202 47.0543 19.7595Z" fill="black"/>
<path d="M54.364 20.9372V29.3111H55.4853H56.6207L56.6633 25.3654C56.7059 21.1927 56.7342 21.0082 57.4723 20.1708C58.1535 19.3902 59.8283 19.1063 60.9638 19.5747C61.6734 19.8727 61.9856 20.1566 62.3689 20.8662C62.6527 21.4056 62.6669 21.661 62.7095 25.3654L62.7521 29.3111H63.8875H65.0229L64.9804 24.9396C64.9378 20.0856 64.9094 19.9295 63.8733 18.7515C62.3547 17.0341 59.1329 16.8638 57.1884 18.3967L56.6349 18.8366V15.7V12.5633H55.4995H54.364V20.9372Z" fill="black"/>
<path d="M11.2171 17.389C10.3229 17.5451 9.95388 17.7154 9.18746 18.2973L8.52039 18.8083V18.1696V17.5309H7.38495H6.24951V23.421V29.3111H7.38495H8.52039V25.7628C8.52039 23.719 8.59135 21.9165 8.67651 21.4907C8.86102 20.6108 9.58486 19.7592 10.3229 19.5037C11.0751 19.2624 12.239 19.4044 12.8918 19.8302C13.9279 20.5256 13.9847 20.7669 14.0273 25.2945L14.0698 29.3111H15.1911H16.3265V25.7628C16.3265 21.7604 16.4259 21.0082 17.0788 20.2701C18.271 18.9218 20.4993 19.1063 21.4076 20.625L21.7908 21.292L21.8334 25.2945L21.876 29.3111H23.0114H24.1469L24.1043 24.8687C24.0617 20.554 24.0475 20.4263 23.7211 19.6882C23.2953 18.7515 22.3586 17.9141 21.3934 17.5877C20.3715 17.247 18.8813 17.2754 17.8594 17.6586C17.1071 17.9567 15.9007 18.936 15.9007 19.2766C15.9007 19.3476 15.6311 19.1205 15.3188 18.7515C14.4956 17.8147 13.8995 17.5451 12.2106 17.318C12.0119 17.3038 11.5719 17.3322 11.2171 17.389Z" fill="black"/>
<path d="M30.9457 17.4446C29.7961 17.6859 28.9019 18.1968 28.0929 19.0484C25.3395 21.9579 26.1911 27.2661 29.6967 28.9267C31.4141 29.7499 33.543 29.7357 35.2746 28.8841C36.1687 28.4583 37.4319 27.3087 37.2758 27.0674C37.2332 26.9823 36.8784 26.6984 36.4952 26.4287L35.7997 25.932L35.4023 26.3578C34.125 27.7061 31.5702 27.8764 30.0232 26.6984C29.5406 26.3294 28.9019 25.2365 28.7458 24.5127L28.6465 24.0585H33.3443H38.0422V23.6611C38.0138 21.0354 36.7649 18.7361 34.863 17.8704C33.5289 17.2601 32.3508 17.1323 30.9457 17.4446ZM33.0605 19.2471C34.0966 19.46 34.8062 20.0419 35.3314 21.0922C36.0836 22.5966 36.3107 22.4973 32.2231 22.4973H28.6749L28.76 22.0999C29.1432 20.567 30.0941 19.5735 31.4709 19.2471C32.2089 19.0768 32.2657 19.0768 33.0605 19.2471Z" fill="black"/>
<path d="M71.9346 17.4035C68.7554 17.8718 66.6123 21.2072 67.3219 24.6419C67.7335 26.7283 68.727 28.105 70.3592 28.914C71.1824 29.3114 71.4805 29.3823 72.6585 29.4249C74.3332 29.4959 75.2984 29.1836 76.2777 28.2611L76.9306 27.665V28.4882V29.3114H78.137H79.3434V23.4213V17.5312H78.137H76.9306V18.326V19.1208L76.2777 18.5389C75.1848 17.5738 73.5952 17.1622 71.9346 17.4035ZM74.5887 19.7595C76.1358 20.2846 77.0157 21.7891 76.9022 23.691C76.7177 26.4444 74.3474 28.0056 71.7785 27.0405C70.3024 26.487 69.4792 25.1528 69.5076 23.3503C69.5218 22.1439 69.7489 21.491 70.416 20.7246C71.3953 19.6034 73.0417 19.2202 74.5887 19.7595Z" fill="black"/>
<path d="M23.9344 33.4132C23.8919 33.4842 23.4093 34.5912 22.87 35.897C22.0468 37.8982 21.9332 38.253 22.1461 38.253C22.3164 38.253 22.4868 38.0401 22.6571 37.6144L22.8984 36.9757H24.0906H25.2828L25.5524 37.6144C25.7228 37.9976 25.9215 38.253 26.0634 38.253C26.2053 38.253 26.2621 38.1821 26.2053 38.0401C25.595 36.4363 24.2183 33.2855 24.119 33.2855C24.0622 33.2855 23.977 33.3423 23.9344 33.4132ZM24.6015 35.2441C25.155 36.5357 25.1409 36.5499 24.048 36.5499C23.2106 36.5499 23.1254 36.5215 23.1964 36.2944C23.5796 35.2299 24.0764 34.1655 24.1473 34.2506C24.1899 34.3074 24.4028 34.7474 24.6015 35.2441Z" fill="black"/>
<path d="M29.5264 35.7693C29.5264 37.8556 29.5548 38.253 29.7393 38.253C29.9096 38.253 29.9522 37.8982 29.9805 36.2234L30.0231 34.208L31.3715 36.1951C32.1237 37.2879 32.8333 38.1963 32.9753 38.2247C33.2024 38.2672 33.2165 38.0685 33.2165 35.7835C33.2165 33.6829 33.1882 33.2855 33.0036 33.2855C32.8333 33.2855 32.7908 33.6403 32.7624 35.3577L32.7198 37.4298L31.3147 35.3577C30.5483 34.2222 29.8244 33.2855 29.7251 33.2855C29.5689 33.2855 29.5264 33.7822 29.5264 35.7693Z" fill="black"/>
<path d="M38.5529 33.4132C38.5103 33.4842 38.0277 34.5912 37.4884 35.897C36.6652 37.8982 36.5516 38.253 36.7645 38.253C36.9349 38.253 37.1052 38.0401 37.2755 37.6144L37.5168 36.9757H38.709H39.9012L40.1709 37.6144C40.3412 37.9976 40.5399 38.253 40.6818 38.253C40.8237 38.253 40.8805 38.1821 40.8237 38.0401C40.2134 36.4363 38.8367 33.2855 38.7374 33.2855C38.6806 33.2855 38.5954 33.3423 38.5529 33.4132ZM39.2199 35.2441C39.7735 36.5357 39.7593 36.5499 38.6664 36.5499C37.829 36.5499 37.7439 36.5215 37.8148 36.2944C38.198 35.2299 38.6948 34.1655 38.7658 34.2506C38.8083 34.3074 39.0212 34.7474 39.2199 35.2441Z" fill="black"/>
<path d="M44.1448 35.7693V38.253H45.706C46.9976 38.253 47.2672 38.2105 47.2672 38.0401C47.2672 37.8698 47.026 37.8272 45.9189 37.8272H44.5706V35.5564C44.5706 33.6261 44.5422 33.2855 44.3577 33.2855C44.1732 33.2855 44.1448 33.6545 44.1448 35.7693Z" fill="black"/>
<path d="M49.822 33.3565C49.822 33.3848 50.2052 34.0093 50.6736 34.719L51.5252 36.0105V37.1318C51.5252 38.0401 51.5678 38.253 51.7381 38.253C51.9084 38.253 51.951 38.0401 51.951 37.2169C51.951 36.1809 51.9652 36.1667 52.8025 34.8467C53.6967 33.4416 53.7677 33.2855 53.4554 33.2855C53.3561 33.2855 52.9303 33.8106 52.5329 34.4493L51.7948 35.5989L51.0142 34.4493C50.5884 33.8106 50.1485 33.2855 50.0349 33.2855C49.9214 33.2855 49.822 33.3139 49.822 33.3565Z" fill="black"/>
<path d="M56.7766 33.4984C56.7766 33.6687 56.9611 33.7113 57.5572 33.7113H58.3378V35.9822C58.3378 38.1537 58.352 38.253 58.6217 38.253C58.8914 38.253 58.9056 38.1537 58.9056 35.9822V33.7113H59.6862C60.2823 33.7113 60.4668 33.6687 60.4668 33.4984C60.4668 33.3139 60.1687 33.2855 58.6217 33.2855C57.0747 33.2855 56.7766 33.3139 56.7766 33.4984Z" fill="black"/>
<path d="M63.8728 35.7693C63.8728 37.884 63.9012 38.253 64.0857 38.253C64.2702 38.253 64.2986 37.884 64.2986 35.7693C64.2986 33.6545 64.2702 33.2855 64.0857 33.2855C63.9012 33.2855 63.8728 33.6545 63.8728 35.7693Z" fill="black"/>
<path d="M69.1952 33.4842C68.2443 33.8958 67.6056 35.159 67.7901 36.2376C68.003 37.5008 68.9255 38.253 70.2597 38.253C71.3099 38.253 72.3744 37.6144 71.9912 37.2311C71.8635 37.1034 71.7357 37.146 71.4519 37.4157C71.1396 37.6995 70.9409 37.7563 70.1745 37.7563C69.3513 37.7563 69.2378 37.7137 68.812 37.3021C68.4146 36.9047 68.3578 36.7344 68.301 35.9538C68.2443 34.8893 68.5281 34.3216 69.3087 33.9526C70.1177 33.5694 70.9835 33.6971 71.6222 34.2932C72.0196 34.6764 72.2325 34.3784 71.8635 33.9668C71.2957 33.3281 70.061 33.101 69.1952 33.4842Z" fill="black"/>
<path d="M76.2637 33.5684C75.7669 33.8665 75.5682 34.349 75.7101 34.9167C75.8095 35.3141 76.4908 35.7115 77.5694 35.967C78.4352 36.1799 78.7758 36.4638 78.7758 36.9747C78.7758 37.5708 78.3784 37.8263 77.4417 37.8263C76.732 37.8263 76.5759 37.7695 76.2211 37.4147C75.7527 36.9605 75.3695 37.0173 75.6392 37.5282C75.8946 37.9966 76.6327 38.2947 77.541 38.2947C78.5487 38.2947 79.0739 37.9682 79.2584 37.2018C79.4855 36.3076 78.9745 35.8535 77.243 35.4135C76.1501 35.1296 75.8237 34.4342 76.5475 33.9232C77.1294 33.5258 78.6197 33.7813 78.8184 34.3064C78.861 34.4484 78.9178 34.4484 79.0597 34.3206C79.2158 34.1787 79.2158 34.1077 79.0597 33.9232C78.5062 33.2562 77.0727 33.0716 76.2637 33.5684Z" fill="black"/>
<defs>
<linearGradient id="paint0_linear_504_42438" x1="88.9304" y1="7.02446" x2="122.993" y2="45.7391" gradientUnits="userSpaceOnUse">
<stop stop-color="#ED3D2C"/>
<stop offset="1" stop-color="#E9307E"/>
</linearGradient>
</defs>
</svg>
